<svg version="1.0" xmlns="http://www.w3.org/2000/svg" width="110px" height="40px" viewBox="0 0 2400.000000 512.000000" preserveAspectRatio="xMidYMid meet">
						<g transform="translate(0.000000,512.000000) scale(0.100000,-0.100000)" fill="#000" stroke="none">
							<path d="M1305 4901 l-380 -206 -3 -1465 -2 -1465 608 -607 607 -608 613 612
							612 613 0 1461 0 1462 -372 200 c-205 111 -381 204 -390 208 -17 6 -18 -72
							-18 -1553 l0 -1558 -220 -220 -220 -220 -220 220 -220 220 0 1557 c0 857 -3
							1557 -7 1557 -5 -1 -179 -94 -388 -208z"></path>
							<path d="M3500 3049 l0 -1354 -345 -345 -345 -346 0 -486 c0 -274 4 -489 9
							-492 5 -3 336 319 735 715 l726 721 0 1258 0 1258 -357 192 c-197 106 -373
							201 -390 212 l-33 20 0 -1353z"></path>
							<path d="M383 4181 l-382 -206 -1 -1255 0 -1255 724 -724 c429 -429 728 -721
							735 -717 8 5 11 145 11 489 l0 482 -345 345 -345 345 0 1352 c0 744 -3 1353
							-7 1352 -5 -1 -180 -94 -390 -208z"></path>
							<path d="M18180 3620 c0 -280 -3 -510 -6 -510 -4 0 -32 24 -64 53 -225 209
							-662 253 -1020 102 -409 -172 -644 -609 -600 -1115 46 -538 386 -901 908 -971
							101 -14 285 -6 384 15 134 29 257 92 358 183 32 29 61 53 64 53 3 0 6 -52 6
							-115 l0 -115 290 0 290 0 0 1465 0 1465 -305 0 -305 0 0 -510z m-408 -781
							c121 -26 250 -115 322 -222 114 -173 127 -459 30 -656 -65 -132 -194 -236
							-337 -270 -26 -6 -89 -11 -140 -12 -163 0 -267 42 -378 151 -109 108 -159 240
							-159 426 0 134 14 203 60 300 65 135 200 245 343 280 66 16 191 17 259 3z"></path>
							<path d="M7250 4004 c-346 -41 -578 -139 -750 -315 -225 -230 -281 -600 -135
							-889 51 -101 193 -229 330 -298 86 -43 318 -116 555 -173 382 -94 485 -133
							570 -218 69 -69 83 -125 54 -220 -31 -105 -133 -175 -301 -207 -121 -23 -387
							-15 -527 15 -193 41 -394 122 -543 217 -30 19 -57 33 -59 31 -2 -2 -51 -109
							-109 -238 l-106 -234 27 -22 c49 -39 188 -111 294 -153 387 -154 903 -188
							1286 -86 174 47 346 142 458 253 148 146 226 334 226 545 0 257 -99 441 -314
							582 -137 90 -268 135 -711 246 -409 103 -507 145 -554 243 -46 94 -16 225 67
							298 109 96 338 139 582 109 182 -23 372 -82 541 -169 l77 -39 97 241 c111 274
							111 243 0 299 -140 71 -327 130 -525 163 -91 16 -451 28 -530 19z"></path>
							<path d="M9755 3349 c-311 -29 -605 -189 -785 -427 -69 -91 -145 -247 -176
							-362 -32 -119 -43 -342 -25 -471 69 -466 405 -795 916 -896 124 -24 443 -24
							565 0 196 39 345 106 480 215 130 105 135 79 -52 283 l-162 176 -59 -48 c-137
							-111 -260 -150 -467 -152 -154 -1 -247 19 -354 76 -116 62 -231 205 -252 315
							l-6 32 800 0 800 0 8 77 c42 451 -183 880 -558 1065 -199 99 -437 140 -673
							117z m270 -474 c154 -40 268 -132 335 -269 22 -44 42 -98 46 -118 l6 -38 -111
							0 c-82 0 -111 3 -111 13 0 6 -11 35 -24 63 -109 235 -443 235 -552 0 -13 -28
							-24 -57 -24 -63 0 -10 -29 -13 -110 -13 -126 0 -120 -5 -90 93 51 164 195 295
							364 332 84 18 200 18 271 0z"></path>
							<path d="M12245 3349 c-193 -17 -411 -97 -565 -207 -135 -96 -262 -250 -336
							-405 -134 -286 -134 -659 1 -944 52 -111 90 -167 170 -253 216 -234 495 -351
							870 -367 297 -12 552 47 747 172 71 47 188 150 188 167 0 12 -310 348 -321
							348 -4 0 -23 -13 -41 -29 -78 -68 -178 -119 -288 -147 -93 -24 -302 -23 -395
							1 -192 49 -338 175 -395 340 -11 32 -20 60 -20 62 0 1 362 3 804 3 l803 0 7
							104 c13 206 -27 411 -114 586 -169 335 -475 535 -874 570 -61 5 -120 9 -131 9
							-11 -1 -60 -5 -110 -10z m263 -474 c170 -40 307 -160 360 -316 11 -30 22 -66
							26 -81 l6 -28 -110 0 c-97 0 -111 2 -116 18 -46 147 -157 233 -299 233 -121 0
							-219 -61 -275 -172 -11 -21 -20 -47 -20 -59 0 -19 -6 -20 -110 -20 -127 0
							-123 -4 -91 99 34 110 118 213 222 274 102 60 278 82 407 52z"></path>
							<path d="M15055 3350 c-205 -22 -407 -109 -542 -233 l-43 -40 0 122 0 121
							-290 0 -290 0 0 -1060 0 -1060 304 0 305 0 4 603 c3 539 5 608 21 661 53 178
							170 297 337 341 69 19 219 19 287 1 107 -29 192 -101 239 -203 49 -106 52
							-161 53 -805 l0 -598 305 0 305 0 0 678 c0 722 -3 777 -51 922 -43 132 -96
							218 -194 317 -80 79 -105 98 -196 142 -161 79 -359 111 -554 91z"></path>
							<path d="M20070 3350 c-183 -14 -372 -58 -529 -122 -85 -34 -231 -117 -231
							-130 0 -5 47 -103 106 -219 l105 -209 45 31 c208 143 586 207 792 135 151 -54
							245 -169 259 -319 l6 -65 -359 -5 c-391 -6 -454 -13 -618 -68 -275 -92 -419
							-286 -419 -564 0 -168 47 -294 152 -408 95 -103 199 -162 361 -205 84 -22 116
							-25 270 -26 188 -1 263 11 380 58 99 41 204 125 251 201 l19 30 0 -133 0 -132
							288 2 287 3 3 605 c1 333 -2 657 -7 721 -29 340 -164 564 -421 698 -191 100
							-454 143 -740 121z m550 -1375 c0 -98 -3 -122 -21 -157 -27 -53 -103 -133
							-154 -164 -133 -77 -339 -92 -476 -33 -190 82 -196 348 -10 428 77 33 137 39
							409 40 l252 1 0 -115z"></path>
							<path d="M21892 2273 c247 -577 454 -1058 458 -1070 7 -17 1 -37 -23 -84 -88
							-171 -221 -240 -404 -209 -75 12 -176 55 -231 97 -18 14 -35 23 -37 21 -2 -2
							-53 -99 -113 -216 l-110 -213 37 -30 c134 -111 421 -181 655 -159 130 13 201
							32 316 88 83 40 107 58 195 146 108 109 165 194 234 353 35 79 367 860 527
							1238 35 83 153 360 262 618 l200 467 -297 0 -296 0 -92 -223 c-78 -189 -436
							-1049 -487 -1172 l-17 -40 -58 140 c-32 77 -145 349 -250 605 -106 256 -213
							516 -239 578 l-47 112 -316 0 -317 0 450 -1047z"></path>
						</g>
					</svg>